<svg width="110" height="24" viewBox="0 0 110 24" fill="none" xmlns="http://www.w3.org/2000/svg">
<path d="M0 18.4088V0H4.01552V14.8484H11.0427V18.4088H0Z" fill="#4295F6"/>
<path d="M19.1664 18.7253C18.1449 18.7253 17.2291 18.5582 16.4189 18.2242C15.6264 17.8901 14.9483 17.4066 14.3848 16.7736C13.8388 16.1407 13.4161 15.3758 13.1167 14.4791C12.8173 13.5824 12.6676 12.5802 12.6676 11.4725C12.6676 10.3648 12.8173 9.36264 13.1167 8.46593C13.4161 7.56923 13.8388 6.81319 14.3848 6.1978C14.9483 5.56483 15.6264 5.08132 16.4189 4.74725C17.2291 4.41319 18.1449 4.24615 19.1664 4.24615C20.1879 4.24615 21.0949 4.41319 21.8874 4.74725C22.6976 5.08132 23.3756 5.56483 23.9216 6.1978C24.4852 6.81319 24.9167 7.56923 25.2161 8.46593C25.5155 9.36264 25.6652 10.3648 25.6652 11.4725C25.6652 12.5802 25.5155 13.5824 25.2161 14.4791C24.9167 15.3758 24.4852 16.1407 23.9216 16.7736C23.3756 17.4066 22.6976 17.8901 21.8874 18.2242C21.0949 18.5582 20.1879 18.7253 19.1664 18.7253ZM19.1664 15.6396C19.9413 15.6396 20.5401 15.4022 20.9628 14.9275C21.3855 14.4527 21.5968 13.7758 21.5968 12.8967V10.0747C21.5968 9.1956 21.3855 8.51868 20.9628 8.04396C20.5401 7.56923 19.9413 7.33187 19.1664 7.33187C18.3915 7.33187 17.7927 7.56923 17.37 8.04396C16.9473 8.51868 16.7359 9.1956 16.7359 10.0747V12.8967C16.7359 13.7758 16.9473 14.4527 17.37 14.9275C17.7927 15.4022 18.3915 15.6396 19.1664 15.6396Z" fill="#4295F6"/>
<path d="M41.2901 19.411C41.2901 20.1495 41.1581 20.8 40.8939 21.3626C40.6473 21.9253 40.2334 22.4 39.6522 22.7868C39.071 23.1912 38.2961 23.4901 37.3275 23.6835C36.3764 23.8945 35.1964 24 33.7875 24C32.5898 24 31.5684 23.9209 30.723 23.7626C29.8952 23.622 29.2172 23.411 28.6888 23.1297C28.1781 22.8659 27.7994 22.5319 27.5528 22.1275C27.3239 21.7407 27.2094 21.2923 27.2094 20.7824C27.2094 20.0088 27.4384 19.4022 27.8963 18.9626C28.3542 18.5231 28.9882 18.2505 29.7984 18.1451V17.8549C29.1291 17.7319 28.6272 17.4506 28.2925 17.011C27.9579 16.5538 27.7906 16.0264 27.7906 15.4286C27.7906 15.0593 27.861 14.7429 28.0019 14.4791C28.1604 14.1978 28.3542 13.9604 28.5831 13.767C28.8297 13.556 29.1115 13.389 29.4285 13.2659C29.7455 13.1429 30.0625 13.0462 30.3796 12.9758V12.8703C29.5342 12.4835 28.909 11.956 28.5039 11.2879C28.0988 10.6022 27.8963 9.81099 27.8963 8.91429C27.8963 7.50769 28.3806 6.38242 29.3493 5.53846C30.3355 4.67692 31.8325 4.24615 33.8403 4.24615C34.7561 4.24615 35.5398 4.33407 36.1915 4.50989V3.98242C36.1915 3.24396 36.3676 2.71648 36.7198 2.4C37.0897 2.06593 37.6092 1.8989 38.2785 1.8989H40.4712V4.8H37.4067V4.95824C38.2169 5.34505 38.8157 5.88132 39.2031 6.56703C39.5906 7.23516 39.7843 8.01758 39.7843 8.91429C39.7843 10.3033 39.2912 11.4198 38.3049 12.2637C37.3363 13.0901 35.8481 13.5033 33.8403 13.5033C32.9421 13.5033 32.1231 13.4066 31.3834 13.2132C30.9784 13.4769 30.7758 13.8462 30.7758 14.3209C30.7758 14.6549 30.8991 14.9187 31.1457 15.1121C31.4098 15.2879 31.8413 15.3758 32.4401 15.3758H36.4557C38.1464 15.3758 39.3704 15.7275 40.1278 16.4308C40.9027 17.1341 41.2901 18.1275 41.2901 19.411ZM37.6181 19.9385C37.6181 19.5341 37.4595 19.2264 37.1425 19.0154C36.8255 18.8044 36.2707 18.6989 35.4782 18.6989H30.723C30.5469 18.8747 30.4148 19.0681 30.3267 19.2791C30.2563 19.5077 30.221 19.7275 30.221 19.9385C30.221 20.4484 30.4412 20.8176 30.8815 21.0462C31.3218 21.2923 32.0703 21.4154 33.127 21.4154H34.7121C35.7688 21.4154 36.5173 21.2923 36.9576 21.0462C37.3979 20.8176 37.6181 20.4484 37.6181 19.9385ZM33.8403 10.9451C34.6152 10.9451 35.1876 10.7868 35.5575 10.4703C35.9449 10.1363 36.1387 9.66154 36.1387 9.04615V8.72967C36.1387 8.11429 35.9449 7.64835 35.5575 7.33187C35.1876 6.9978 34.6152 6.83077 33.8403 6.83077C33.0654 6.83077 32.4842 6.9978 32.0967 7.33187C31.7269 7.64835 31.5419 8.11429 31.5419 8.72967V9.04615C31.5419 9.66154 31.7269 10.1363 32.0967 10.4703C32.4842 10.7868 33.0654 10.9451 33.8403 10.9451Z" fill="#4295F6"/>
<path d="M48.4995 18.7253C47.4781 18.7253 46.5622 18.5582 45.7521 18.2242C44.9595 17.8901 44.2815 17.4066 43.7179 16.7736C43.1719 16.1407 42.7493 15.3758 42.4498 14.4791C42.1504 13.5824 42.0007 12.5802 42.0007 11.4725C42.0007 10.3648 42.1504 9.36264 42.4498 8.46593C42.7493 7.56923 43.1719 6.81319 43.7179 6.1978C44.2815 5.56483 44.9595 5.08132 45.7521 4.74725C46.5622 4.41319 47.4781 4.24615 48.4995 4.24615C49.521 4.24615 50.4281 4.41319 51.2206 4.74725C52.0307 5.08132 52.7088 5.56483 53.2548 6.1978C53.8184 6.81319 54.2498 7.56923 54.5492 8.46593C54.8486 9.36264 54.9983 10.3648 54.9983 11.4725C54.9983 12.5802 54.8486 13.5824 54.5492 14.4791C54.2498 15.3758 53.8184 16.1407 53.2548 16.7736C52.7088 17.4066 52.0307 17.8901 51.2206 18.2242C50.4281 18.5582 49.521 18.7253 48.4995 18.7253ZM48.4995 15.6396C49.2745 15.6396 49.8733 15.4022 50.296 14.9275C50.7187 14.4527 50.93 13.7758 50.93 12.8967V10.0747C50.93 9.1956 50.7187 8.51868 50.296 8.04396C49.8733 7.56923 49.2745 7.33187 48.4995 7.33187C47.7246 7.33187 47.1258 7.56923 46.7031 8.04396C46.2804 8.51868 46.0691 9.1956 46.0691 10.0747V12.8967C46.0691 13.7758 46.2804 14.4527 46.7031 14.9275C47.1258 15.4022 47.7246 15.6396 48.4995 15.6396Z" fill="#4295F6"/>
<path d="M62.4903 18.4088C61.1342 18.4088 60.1039 18.0659 59.3994 17.3802C58.7125 16.6945 58.3691 15.6923 58.3691 14.3736V7.5956H56.4142V4.56264H57.3916C57.92 4.56264 58.281 4.43956 58.4748 4.19341C58.6685 3.92967 58.7654 3.56044 58.7654 3.08571V0.817581H62.279V4.56264H65.0264V7.5956H62.279V15.3758H64.8151V18.4088H62.4903Z" fill="#4295F6"/>
<path d="M76.2227 4.56264H79.8683L74.5319 20.5451C74.1797 21.6176 73.6777 22.4088 73.0261 22.9187C72.3921 23.4286 71.4762 23.6835 70.2786 23.6835H67.8482V20.6505H70.4636L70.9391 19.1209L66.0782 4.56264H69.9616L71.9958 11.0242L72.9997 15.033H73.1582L74.1885 11.0242L76.2227 4.56264Z" fill="#4295F6"/>
<path d="M81.8544 4.56264H85.7643V6.88352H85.8964C86.0901 6.10989 86.5304 5.47692 87.2172 4.98462C87.9217 4.49231 88.7231 4.24615 89.6213 4.24615C91.3825 4.24615 92.7122 4.86154 93.6104 6.09231C94.5086 7.32308 94.9577 9.11648 94.9577 11.4725C94.9577 13.8286 94.5086 15.6308 93.6104 16.8791C92.7122 18.1099 91.3825 18.7253 89.6213 18.7253C89.1634 18.7253 88.7319 18.6549 88.3268 18.5143C87.9217 18.3912 87.5519 18.2154 87.2172 17.9868C86.9002 17.7407 86.6272 17.4593 86.3983 17.1429C86.1693 16.8088 86.002 16.4571 85.8964 16.0879H85.7643V23.6835H81.8544V4.56264ZM88.3268 15.5604C89.0665 15.5604 89.6741 15.3055 90.1496 14.7956C90.6428 14.2681 90.8893 13.5648 90.8893 12.6857V10.2857C90.8893 9.40659 90.6428 8.71209 90.1496 8.2022C89.6741 7.67472 89.0665 7.41099 88.3268 7.41099C87.5871 7.41099 86.9707 7.5956 86.4775 7.96483C86.002 8.31648 85.7643 8.80879 85.7643 9.44176V13.5297C85.7643 14.1626 86.002 14.6637 86.4775 15.033C86.9707 15.3846 87.5871 15.5604 88.3268 15.5604Z" fill="#4295F6"/>
<path d="M103.713 18.7253C102.656 18.7253 101.714 18.5582 100.886 18.2242C100.058 17.8725 99.3536 17.389 98.7724 16.7736C98.2088 16.1407 97.7773 15.3758 97.4779 14.4791C97.1961 13.5824 97.0552 12.5802 97.0552 11.4725C97.0552 10.3824 97.1961 9.3978 97.4779 8.51868C97.7597 7.62198 98.1736 6.85714 98.7196 6.22418C99.2831 5.59121 99.97 5.10769 100.78 4.77363C101.59 4.42198 102.515 4.24615 103.554 4.24615C104.699 4.24615 105.676 4.43956 106.486 4.82637C107.314 5.21319 107.983 5.73187 108.494 6.38242C109.023 7.03297 109.401 7.78901 109.63 8.65055C109.877 9.4945 110 10.3824 110 11.3143V12.4747H101.097V12.6857C101.097 13.6 101.344 14.3297 101.837 14.8747C102.33 15.4022 103.105 15.6659 104.162 15.6659C104.972 15.6659 105.632 15.5077 106.143 15.1912C106.654 14.8571 107.129 14.4615 107.57 14.0044L109.524 16.4308C108.908 17.1516 108.098 17.7143 107.094 18.1187C106.108 18.5231 104.981 18.7253 103.713 18.7253ZM103.633 7.12088C102.841 7.12088 102.216 7.38461 101.758 7.91209C101.317 8.42198 101.097 9.10769 101.097 9.96923V10.1802H105.958V9.94286C105.958 9.0989 105.764 8.42198 105.377 7.91209C105.007 7.38461 104.426 7.12088 103.633 7.12088Z" fill="#4295F6"/>
</svg>
